Description

Sinopse e detalhes

Ling (Marc Dacascos) deseja ter a posse de um raro e valioso diamente. Para tê-lo em mãos ele decide por sequestrar a filha de Tony Fait (DMX), um famoso ladrão de jóias, de forma a obrigá-lo a roubar o diamante. Sem saída, Fait e sua gangue forjam uma parceria com a Inteligência de Taiwan, chefiada por Su Duncan (Jet Li), para conseguir a cobiçada jóia.

Format : Matroska
Format version : Version 2
File size : 852 MiB
Duration : 1h 41mn
Overall bit rate : 1 177 Kbps
Encoded date : UTC 2013-05-01 16:58:55
Writing application : mkvmerge v6.1.0 ('Old Devil') built on Mar 2 2013 14:32:37
Writing library : libebml v1.3.0 + libmatroska v1.4.0

Video
ID : 1
Format : AVC
Format/Info : Advanced Video Codec
Format profile : High@L4.1
Format settings, CABAC : Yes
Format settings, ReFrames : 4 frames
Codec ID : V_MPEG4/ISO/AVC
Duration : 1h 41mn
Bit rate : 336 Kbps
Width : 720 pixels
Height : 288 pixels
Display aspect ratio : 2.500
Frame rate mode : Constant
Frame rate : 23.976 fps
Color space : YUV
Chroma subsampling : 4:2:0
Bit depth : 8 bits
Scan type : Progressive
Bits/(Pixel*Frame) : 0.068
Stream size : 233 MiB (27%)
Writing library : x264 core 130 r2273 b3065e6
Encoding settings : cabac=1 / ref=3 / deblock=1:0:0 / analyse=0x3:0x113 / me=hex / subme=7 / psy=1 / psy_rd=1.00:0.00 / mixed_ref=1 / me_range=16 / chroma_me=1 / trellis=1 / 8x8dct=1 / cqm=0 / deadzone=21,11 / fast_pskip=1 / chroma_qp_offset=-2 / threads=3 / lookahead_threads=1 / sliced_threads=0 / nr=0 / decimate=1 / interlaced=0 / bluray_compat=0 / constrained_intra=0 / bframes=3 / b_pyramid=2 / b_adapt=1 / b_bias=0 / direct=1 / weightb=1 / open_gop=0 / weightp=2 / keyint=240 / keyint_min=23 / scenecut=40 / intra_refresh=0 / rc_lookahead=40 / rc=2pass / mbtree=1 / bitrate=336 / ratetol=1.0 / qcomp=0.60 / qpmin=0 / qpmax=69 / qpstep=4 / cplxblur=20.0 / qblur=0.5 / vbv_maxrate=62500 / vbv_bufsize=78125 / nal_hrd=none / ip_ratio=1.40 / aq=1:1.00
Default : Yes
Forced : No

Audio #1
ID : 2
Format : AC-3
Format/Info : Audio Coding 3
Mode extension : CM (complete main)
Format settings, Endianness : Big
Codec ID : A_AC3
Duration : 1h 41mn
Bit rate mode : Constant
Bit rate : 448 Kbps
Channel(s) : 6 channels
Channel positions : Front: L C R, Side: L R, LFE
Sampling rate : 48.0 KHz
Bit depth : 16 bits
Compression mode : Lossy
Delay relative to video : 2ms
Stream size : 324 MiB (38%)
Title : by fantasma
Language : English
Default : Yes
Forced : No

Audio #2
ID : 3
Format : AC-3
Format/Info : Audio Coding 3
Format profile : Dolby Digital
Mode extension : CM (complete main)
Format settings, Endianness : Big
Codec ID : A_AC3
Duration : 1h 41mn
Bit rate mode : Constant
Bit rate : 192 Kbps
Channel(s) : 2 channels
Channel positions : Front: L R
Sampling rate : 48.0 KHz
Bit depth : 16 bits
Compression mode : Lossy
Delay relative to video : 2ms
Stream size : 139 MiB (16%)
Title : by fantasma
Language : Spanish
Default : No
Forced : No

Audio #3
ID : 4
Format : AC-3
Format/Info : Audio Coding 3
Format profile : Dolby Digital
Mode extension : CM (complete main)
Format settings, Endianness : Big
Codec ID : A_AC3
Duration : 1h 41mn
Bit rate mode : Constant
Bit rate : 192 Kbps
Channel(s) : 2 channels
Channel positions : Front: L R
Sampling rate : 48.0 KHz
Bit depth : 16 bits
Compression mode : Lossy
Delay relative to video : 2ms
Stream size : 139 MiB (16%)
Title : by fantasma
Language : Portuguese
Default : No
Forced : No

Text #1
ID : 5
Format : VobSub
Muxing mode : zlib
Codec ID : S_VOBSUB
Codec ID/Info : The same subtitle format used on DVDs
Title : by fantasma
Language : Portuguese
Default : No
Forced : No

Text #2
ID : 6
Format : VobSub
Muxing mode : zlib
Codec ID : S_VOBSUB
Codec ID/Info : The same subtitle format used on DVDs
Title : by fantasma
Language : Spanish
Default : No
Forced : No

Text #3
ID : 7
Format : VobSub
Muxing mode : zlib
Codec ID : S_VOBSUB
Codec ID/Info : The same subtitle format used on DVDs
Title : by fantasma
Language : Spanish
Default : No
Forced : No

Text #4
ID : 8
Format : VobSub
Muxing mode : zlib
Codec ID : S_VOBSUB
Codec ID/Info : The same subtitle format used on DVDs
Title : by fantasma
Language : English
Default : No
Forced : No

Text #5
ID : 9
Format : VobSub
Muxing mode : zlib
Codec ID : S_VOBSUB
Codec ID/Info : The same subtitle format used on DVDs
Title : by fantasma
Language : English
Default : No
Forced : No

Menu
00:00:00.000 : en:Chapter 01
00:04:00.434 : en:Chapter 02
00:06:39.901 : en:Chapter 03
00:09:33.235 : en:Chapter 04
00:13:08.235 : en:Chapter 05
00:18:26.602 : en:Chapter 06
00:23:01.102 : en:Chapter 07
00:27:12.769 : en:Chapter 08
00:31:27.737 : en:Chapter 09
00:35:43.104 : en:Chapter 10
00:39:00.738 : en:Chapter 11
00:43:32.572 : en:Chapter 12
00:46:13.239 : en:Chapter 13
00:51:36.739 : en:Chapter 14
00:54:30.739 : en:Chapter 15
00:56:16.573 : en:Chapter 16
00:59:36.407 : en:Chapter 17
01:03:24.607 : en:Chapter 18
01:09:35.740 : en:Chapter 19
01:12:02.773 : en:Chapter 20
01:15:36.440 : en:Chapter 21
01:18:35.573 : en:Chapter 22
01:23:18.407 : en:Chapter 23
01:27:15.774 : en:Chapter 24
01:30:33.441 : en:Chapter 25
01:34:25.908 : en:Chapter 26
01:36:23.609 : en:Chapter 27
01:37:26.109 : en:Chapter 28